<?xml version="1.0" encoding="UTF-8" standalone="no"?>
<!-- Generator: Adobe Illustrator 19.0.0, SVG Export Plug-In . SVG Version: 6.00 Build 0)  -->

<svg
   xmlns:dc="http://purl.org/dc/elements/1.1/"
   xmlns:cc="http://creativecommons.org/ns#"
   xmlns:rdf="http://www.w3.org/1999/02/22-rdf-syntax-ns#"
   xmlns:svg="http://www.w3.org/2000/svg"
   xmlns="http://www.w3.org/2000/svg"
   xmlns:sodipodi="http://sodipodi.sourceforge.net/DTD/sodipodi-0.dtd"
   xmlns:inkscape="http://www.inkscape.org/namespaces/inkscape"
   version="1.1"
   id="Capa_1"
   x="0px"
   y="0px"
   viewBox="0 0 128 193"
   xml:space="preserve"
   inkscape:version="0.91 r13725"
   sodipodi:docname="missing-cover-book.svg"
   width="128"
   height="193"><metadata
     id="metadata56"><rdf:RDF><cc:Work
         rdf:about=""><dc:format>image/svg+xml</dc:format><dc:type
           rdf:resource="http://purl.org/dc/dcmitype/StillImage" /><dc:title></dc:title></cc:Work></rdf:RDF></metadata><defs
     id="defs54" /><sodipodi:namedview
     pagecolor="#ffffff"
     bordercolor="#666666"
     borderopacity="1"
     objecttolerance="10"
     gridtolerance="10"
     guidetolerance="10"
     inkscape:pageopacity="0"
     inkscape:pageshadow="2"
     inkscape:window-width="1638"
     inkscape:window-height="1128"
     id="namedview52"
     showgrid="false"
     fit-margin-top="0"
     fit-margin-left="0"
     fit-margin-right="0"
     fit-margin-bottom="0"
     inkscape:zoom="4.7020893"
     inkscape:cx="60.27001"
     inkscape:cy="97.442267"
     inkscape:window-x="45"
     inkscape:window-y="62"
     inkscape:window-maximized="0"
     inkscape:current-layer="Capa_1" /><g
     id="g3"
     transform="matrix(0.44393423,0,0,0.49414452,-22.694806,0)"><g
       id="Guides_For_Artboard_50_" /><g
       id="Artwork_49_" /><g
       id="Layer_2_49_"><g
         id="g8"><path
           style="fill:#d43d21"
           d="M 309.164,0 90.336,0 C 73.607,0 51.122,14.813 51.122,29.753 c 0,0 0,304.703 0,328.372 0,23.669 22.485,32.448 39.214,32.448 l 7.317,0 c -16.236,0 -26.4,-12.111 -26.4,-27.051 L 70.179,81.267 c 0,0 -1.97,0 -1.926,0 l 0,-33.478 c 0,-14.94 13.164,-27.051 29.4,-27.051 l 212.401,0 c 16.237,0 29.399,12.11 29.399,27.051 l 0,-20.738 C 339.454,12.111 325.893,0 309.164,0 Z"
           id="path10"
           inkscape:connector-curvature="0" /><path
           style="fill:#f7f1e6"
           d="m 310.054,20.739 -212.401,0 c -16.236,0 -29.4,12.11 -29.4,27.051 l 0,33.478 c 1.025,0 13.83,0 29.4,0 l 212.401,0 c 16.237,0 29.399,12.111 29.399,27.051 l 0,-60.528 C 339.454,32.85 326.292,20.739 310.054,20.739 Z"
           id="path12"
           inkscape:connector-curvature="0" /><path
           style="fill:#e74424"
           d="m 310.054,81.268 -212.401,0 c -15.57,0 -28.375,0 -29.4,0 -0.044,0 -0.074,0 -0.074,0 l 0.074,282.255 c 0,14.94 13.164,27.051 29.4,27.051 l 203.232,0 9.169,0 c 16.237,0 29.399,-12.111 29.399,-27.051 l 0,-73.529 0,-20.739 0,-160.937 c 0.001,-14.939 -13.161,-27.05 -29.399,-27.05 z M 126.507,193.772 c 0,-10.496 8.515,-19.008 19.008,-19.008 l 30.18,0 0,-30.179 c 0,-10.501 8.514,-19.01 19.012,-19.01 l 1.732,0 10.98,0 c 10.5,0 19.01,8.509 19.01,19.01 l 0,30.179 30.178,0 c 10.502,0 19.013,8.512 19.013,19.008 l 0,12.715 c 0,10.499 -8.511,19.008 -19.013,19.008 l -30.178,0 0,30.18 c 0,10.501 -8.51,19.014 -19.01,19.014 l -10.98,0 -1.732,0 c -10.498,0 -19.012,-8.513 -19.012,-19.014 l 0,-30.18 -30.18,0 c -10.493,0 -19.008,-8.509 -19.008,-19.008 l 0,-12.715 z m -7.625,99.323 169.869,0 c 5.509,0 9.977,3.881 9.977,8.668 0,4.787 -4.468,8.668 -9.977,8.668 l -169.869,0 c -5.51,0 -9.977,-3.881 -9.977,-8.668 0,-4.787 4.467,-8.668 9.977,-8.668 z m 146.869,49.012 -123.869,0 c -5.51,0 -9.977,-3.881 -9.977,-8.668 0,-4.787 4.467,-8.668 9.977,-8.668 l 123.869,0 c 5.509,0 9.977,3.881 9.977,8.668 0,4.787 -4.468,8.668 -9.977,8.668 z"
           id="path14"
           inkscape:connector-curvature="0" /><path
           style="fill:#f7f1e6"
           d="m 145.514,225.494 30.18,0 0,30.18 c 0,10.501 8.514,19.014 19.012,19.014 l 1.732,0 10.98,0 c 10.5,0 19.01,-8.513 19.01,-19.014 l 0,-30.18 30.178,0 c 10.502,0 19.013,-8.509 19.013,-19.008 l 0,-12.715 c 0,-10.496 -8.511,-19.008 -19.013,-19.008 l -30.178,0 0,-30.179 c 0,-10.501 -8.51,-19.01 -19.01,-19.01 l -10.98,0 -1.732,0 c -10.498,0 -19.012,8.509 -19.012,19.01 l 0,30.179 -30.18,0 c -10.493,0 -19.008,8.512 -19.008,19.008 l 0,12.715 c 0.001,10.499 8.515,19.008 19.008,19.008 z"
           id="path16"
           inkscape:connector-curvature="0" /><path
           style="fill:#f7f1e6"
           d="m 118.882,310.432 169.869,0 c 5.509,0 9.977,-3.881 9.977,-8.668 0,-4.787 -4.468,-8.668 -9.977,-8.668 l -169.869,0 c -5.51,0 -9.977,3.881 -9.977,8.668 0,4.787 4.467,8.668 9.977,8.668 z"
           id="path18"
           inkscape:connector-curvature="0" /><path
           style="fill:#f7f1e6"
           d="m 265.751,324.77 -123.869,0 c -5.51,0 -9.977,3.881 -9.977,8.668 0,4.787 4.467,8.668 9.977,8.668 l 123.869,0 c 5.509,0 9.977,-3.881 9.977,-8.668 0,-4.787 -4.468,-8.668 -9.977,-8.668 z"
           id="path20"
           inkscape:connector-curvature="0" /></g></g></g><g
     id="g22"
     transform="translate(-51.122,-197.574)" /><g
     id="g24"
     transform="translate(-51.122,-197.574)" /><g
     id="g26"
     transform="translate(-51.122,-197.574)" /><g
     id="g28"
     transform="translate(-51.122,-197.574)" /><g
     id="g30"
     transform="translate(-51.122,-197.574)" /><g
     id="g32"
     transform="translate(-51.122,-197.574)" /><g
     id="g34"
     transform="translate(-51.122,-197.574)" /><g
     id="g36"
     transform="translate(-51.122,-197.574)" /><g
     id="g38"
     transform="translate(-51.122,-197.574)" /><g
     id="g40"
     transform="translate(-51.122,-197.574)" /><g
     id="g42"
     transform="translate(-51.122,-197.574)" /><g
     id="g44"
     transform="translate(-51.122,-197.574)" /><g
     id="g46"
     transform="translate(-51.122,-197.574)" /><g
     id="g48"
     transform="translate(-51.122,-197.574)" /><g
     id="g50"
     transform="translate(-51.122,-197.574)" /></svg>